HIERARCHY
ROOT RootJoint
{
    OFFSET   0.000000   0.000000   0.000000
    CHANNELS 6 Xposition Yposition Zposition Xrotation Yrotation Zrotation
    JOINT pelvis_lowerback
    {
        OFFSET   0.000000   0.093605   0.000000
        CHANNELS 3 Xrotation Yrotation Zrotation
        JOINT lowerback_torso
        {
            OFFSET   0.000000   0.100000   0.000000
            CHANNELS 3 Xrotation Yrotation Zrotation
            JOINT torso_head
            {
                OFFSET   0.000000   0.282350   0.000000
                CHANNELS 3 Xrotation Yrotation Zrotation
                End Site
                {
                    OFFSET   0.000000   0.192650   0.000000
                }
            }
            JOINT rTorso_Clavicle
            {
                OFFSET  -0.001000   0.157500   0.000000
                CHANNELS 3 Xrotation Yrotation Zrotation
                JOINT rShoulder
                {
                    OFFSET  -0.117647   0.000000   0.000000
                    CHANNELS 3 Xrotation Yrotation Zrotation
                    JOINT rElbow
                    {
                        OFFSET  -0.245000   0.000000   0.000000
                        CHANNELS 3 Xrotation Yrotation Zrotation
                        JOINT rWrist
                        {
                            OFFSET  -0.240000   0.000000   0.000000
                            CHANNELS 3 Xrotation Yrotation Zrotation
                            End Site
                            {
                                OFFSET  -0.116353  -0.002500   0.000000
                            }
                        }
                    }
                }
            }
            JOINT lTorso_Clavicle
            {
                OFFSET   0.001000   0.157500   0.000000
                CHANNELS 3 Xrotation Yrotation Zrotation
                JOINT lShoulder
                {
                    OFFSET   0.117647   0.000000   0.000000
                    CHANNELS 3 Xrotation Yrotation Zrotation
                    JOINT lElbow
                    {
                        OFFSET   0.245000   0.000000   0.000000
                        CHANNELS 3 Xrotation Yrotation Zrotation
                        JOINT lWrist
                        {
                            OFFSET   0.240000   0.000000   0.000000
                            CHANNELS 3 Xrotation Yrotation Zrotation
                            End Site
                            {
                                OFFSET   0.116353  -0.002500   0.000000
                            }
                        }
                    }
                }
            }
        }
    }
    JOINT rHip
    {
        OFFSET  -0.100000  -0.051395   0.000000
        CHANNELS 3 Xrotation Yrotation Zrotation
        JOINT rKnee
        {
            OFFSET   0.000000  -0.410000   0.000000
            CHANNELS 3 Xrotation Yrotation Zrotation
            JOINT rAnkle
            {
                OFFSET   0.000000  -0.390000   0.000000
                CHANNELS 3 Xrotation Yrotation Zrotation
                JOINT rToeJoint
                {
                    OFFSET   0.000000  -0.050000   0.130000
                    CHANNELS 3 Xrotation Yrotation Zrotation
                    End Site
                    {
                        OFFSET  -0.010000   0.002000   0.060000
                    }
                }
            }
        }
    }
    JOINT lHip
    {
        OFFSET   0.100000  -0.051395   0.000000
        CHANNELS 3 Xrotation Yrotation Zrotation
        JOINT lKnee
        {
            OFFSET   0.000000  -0.410000   0.000000
            CHANNELS 3 Xrotation Yrotation Zrotation
            JOINT lAnkle
            {
                OFFSET   0.000000  -0.390000   0.000000
                CHANNELS 3 Xrotation Yrotation Zrotation
                JOINT lToeJoint
                {
                    OFFSET   0.000000  -0.050000   0.130000
                    CHANNELS 3 Xrotation Yrotation Zrotation
                    End Site
                    {
                        OFFSET   0.010000   0.002000   0.060000
                    }
                }
            }
        }
    }
}
MOTION
Frames: 17
Frame Time:   0.008333
 -2.376719   0.925631   3.975860   0.000000   0.000000   0.000000   0.000000   0.000000   0.000000   0.000000   0.000000   0.000000   0.000000   0.000000   0.000000   0.000000   0.000000   0.000000   0.000000   0.000000   0.000000   0.000000   0.000000   0.000000   0.000000   0.000000   0.000000   0.000000   0.000000   0.000000   0.000000   0.000000   0.000000   0.000000   0.000000   0.000000   0.000000   0.000000   0.000000   0.000000   0.000000   0.000000   0.000000   0.000000   0.000000   0.000000   0.000000   0.000000   0.000000   0.000000   0.000000   0.000000   0.000000   0.000000   0.000000   0.000000   0.000000   0.000000   0.000000   0.000000   0.000000   0.000000   0.000000
 -2.376490   0.925209   3.974586  -1.196328   0.464817   0.009778   1.541589  -0.014220  -0.014992  -0.016791  -0.136867   0.161803   0.120076  -0.177283  -0.023665  -0.518923  -0.253198  -0.330221  -1.965164  -0.095073   0.919191   0.020306   3.449111   0.064293   0.067749  -2.026494  -1.190002  -0.529421  -0.077776   0.080590   0.095109  -0.848043  -1.595861   0.039534  -3.314413  -0.001603   0.072047   2.341923   1.615934   0.399292  -0.682829  -0.296255   2.305271   0.005707  -0.004541  -1.582646  -0.215898   0.100226   0.023389   0.000039  -0.000088   0.276846   0.154938   0.278101   3.082417  -0.007096   0.016929  -2.585656   0.378229   0.051156   0.093790  -0.000281   0.000814
 -2.376265   0.924468   3.972991  -2.593040   1.061576   0.058621   3.053274  -0.085745  -0.018464   0.136259  -0.365375   0.300649   0.297092  -0.337616  -0.011833  -1.018420  -0.210400  -0.418390  -3.822709   0.059061   1.958942   0.041899   7.075962   0.116919   0.062785  -2.946024  -2.084909  -1.027649  -0.581956  -0.237842   0.137071  -2.044307  -3.406053   0.092448  -6.853866  -0.003530   0.134138   3.393315   2.761008   0.816586  -1.364929  -0.847821   4.786618   0.015278  -0.006577  -3.045982  -0.431012   0.182525   0.035798   0.000077  -0.000104   0.755391   0.354425   0.809450   6.393773  -0.018736   0.038430  -4.987466   0.745425   0.116146   0.133501  -0.000440   0.001056
 -2.376107   0.923210   3.971176  -3.988771   1.695942   0.151053   4.461435  -0.211077  -0.037132   0.300111  -0.644329   0.398314   0.452372  -0.485067   0.014371  -1.481804   0.055607  -0.320061  -5.563777   0.347905   3.072510   0.060172  10.778675   0.158862   0.057556  -3.300305  -2.655956  -1.499868  -1.349872  -0.808026   0.122085  -3.397947  -5.296675   0.147492 -10.490076  -0.006505   0.205054   3.731874   3.440465   1.135454  -2.016526  -1.603201   7.138490   0.025674  -0.008042  -4.407046  -0.637017   0.251296   0.060817   0.000194  -0.000140   1.324969   0.571306   1.556167   9.575449  -0.031279   0.058665  -7.222819   1.092209   0.193276   0.188287  -0.000758   0.001433
 -2.376024   0.921296   3.969219  -5.337552   2.320041   0.281403   5.775929  -0.373766  -0.080848   0.449709  -0.950086   0.452678   0.576614  -0.622191   0.044791  -1.911318   0.461104  -0.095902  -7.194886   0.701493   4.224297   0.072712  14.527309   0.191455   0.055414  -3.343038  -2.974771  -1.951969  -2.266248  -1.534090   0.052793  -4.815750  -7.202919   0.198979 -14.184537  -0.009361   0.284102   3.669962   3.774659   1.335374  -2.632788  -2.517818   9.314577   0.035178  -0.010028  -5.677540  -0.833286   0.308912   0.081911   0.000290  -0.000159   1.942823   0.795769   2.480639  12.577575  -0.042940   0.075970  -9.308396   1.417403   0.280572   0.239467  -0.001069   0.001701
 -2.376001   0.918625   3.967186  -6.627363   2.909456   0.442062   7.011115  -0.561707  -0.151181   0.590129  -1.269160   0.465616   0.675179  -0.750104   0.075181  -2.309150   0.946558   0.203531  -8.721867   1.076525   5.381644   0.078455  18.304384   0.215929   0.055417  -3.206369  -3.117493  -2.387199  -3.257274  -2.351853  -0.064859  -6.241882  -9.084904   0.244171 -17.915737  -0.011150   0.366789   3.376088   3.866614   1.420822  -3.209450  -3.554037  11.316267   0.042930  -0.012665  -6.864446  -1.019610   0.357133   0.097101   0.000342  -0.000165   2.588420   1.021661   3.546691  15.400261  -0.052853   0.089952 -11.255286   1.720850   0.375898   0.284680  -0.001322   0.001843
 -2.376309   0.916328   3.965347  -7.884312   3.244551   0.548933   8.182069  -0.681903  -0.241722   0.744099  -1.526032   0.459390   0.756705  -0.867112   0.106896  -2.675302   1.493276   0.628691 -10.148207   1.456822   6.565206   0.080615  22.103531   0.234103   0.059188  -2.941340  -3.142779  -2.798908  -4.242646  -3.283033  -0.218995  -7.619057 -10.945439   0.285733 -21.662198  -0.011620   0.449029   2.976687   3.813193   1.433932  -4.034906  -4.015629  13.697621   0.038463  -0.024752  -7.680429  -1.339933   0.686753   0.083542   0.000275  -0.000023   3.344594   1.261197   4.789297  18.034633  -0.061949   0.096096 -13.069441   2.004947   0.480423   0.351584  -0.001823   0.002056
 -2.376407   0.913482   3.962875  -8.373649   3.341911   0.628895   8.762715  -0.692757  -0.292859   0.622838  -1.730346   0.382312   0.760172  -1.118586   0.182425  -2.982078   1.946263   0.996892 -11.644530   1.877088   7.736145   0.071755  25.909610   0.255810   0.073611  -2.672272  -2.997284  -2.854951  -5.095208  -3.935810  -0.417340  -9.072839 -12.953775   0.320499 -25.435781  -0.000931   0.489519   2.543361   3.405221   0.287857  -4.824629  -4.442705  16.572749   0.030367  -0.042757  -8.553105  -1.697702   0.937776   0.110840   0.000203  -0.000304   3.608332   1.549988   5.991483  19.399528  -0.059887   0.087617 -14.199187   2.265843   0.300594   0.651704  -0.004082   0.003733
 -2.376236   0.910264   3.960282  -8.772458   3.490442   0.721403   9.346504  -0.765639  -0.315304   0.477590  -1.967537   0.306096   0.732739  -1.360342   0.255622  -3.271991   2.390276   1.316366 -13.049481   2.258510   8.822246   0.057382  29.719953   0.270453   0.081621  -2.396277  -2.882575  -2.908256  -5.946282  -4.551247  -0.646915 -10.462897 -14.852373   0.346327 -29.220630   0.012528   0.527410   2.076879   2.900195  -0.913925  -5.559092  -4.844846  19.349924   0.021346  -0.053318  -9.331925  -2.026894   1.153497   0.137823   0.000135  -0.000496   3.803937   1.804264   7.159937  20.476785  -0.055803   0.078845 -15.259178   2.509340   0.137303   0.945039  -0.005775   0.005066
 -2.375825   0.906987   3.957547  -9.110793   3.897279   0.817910   9.934836  -0.957083  -0.289600   0.358040  -2.293057   0.251758   0.702038  -1.589619   0.328607  -3.544112   2.803216   1.601242 -14.367102   2.596574   9.827368   0.041577  33.356533   0.275404   0.094637  -2.066058  -2.832470  -2.975563  -6.825278  -5.145177  -0.912059 -11.812535 -16.645453   0.366643 -33.022311   0.028006   0.566617   1.555626   2.404475  -1.981946  -6.012112  -5.179044  21.911200   0.015767  -0.047835 -10.502177  -2.074188   1.419402   0.015014   0.000318  -0.000145   3.865336   2.010357   8.324449  21.424448  -0.050796   0.072512 -16.249620   2.737633  -0.011738   1.215396  -0.006845   0.006466
 -2.375145   0.903584   3.954744  -9.405753   4.415708   0.950987  10.525623  -1.182879  -0.257483   0.270762  -2.651274   0.200192   0.676162  -1.803706   0.398696  -3.800662   3.196077   1.842029 -15.603294   2.901828  10.755141   0.026085  36.757331   0.272080   0.111844  -1.704282  -2.831000  -3.056324  -7.706793  -5.697609  -1.205997 -13.109762 -18.331850   0.382479 -36.838122   0.044716   0.605914   0.986773   1.926987  -2.987817  -6.385938  -5.540337  24.281914   0.012599  -0.039122 -11.594795  -2.104045   1.643465  -0.079948   0.000371  -0.000092   3.856991   2.200146   9.423838  22.271198  -0.045554   0.067086 -17.175570   2.953283  -0.147188   1.459709  -0.007394   0.007549
 -2.374215   0.900069   3.951945  -9.666457   4.958014   1.101188  11.113601  -1.407475  -0.212541   0.213008  -3.006727   0.151566   0.656740  -2.002768   0.464331  -4.044449   3.573865   2.041457 -16.764193   3.180291  11.609788   0.012052  39.935768   0.263221   0.132403  -1.336075  -2.874843  -3.145906  -8.564437  -6.208818  -1.520399 -14.339809 -19.916226   0.395053 -40.662861   0.062166   0.643771   0.395577   1.476858  -3.957047  -6.727778  -5.933753  26.505076   0.010896  -0.031196 -12.614744  -2.153851   1.839551  -0.151812   0.000357  -0.000073   3.822100   2.377629  10.462975  23.040730  -0.040557   0.061899 -18.040889   3.156376  -0.269910   1.680929  -0.007576   0.008189
 -2.373068   0.896469   3.949201  -9.895738   5.491476   1.255017  11.691346  -1.621171  -0.153440   0.179121  -3.346191   0.109713   0.643562  -2.188028   0.526091  -4.276416   3.935349   2.206441 -17.854275   3.434087  12.398235   0.000043  42.905938   0.250861   0.155702  -0.968134  -2.956237  -3.239682  -9.382859  -6.680161  -1.847517 -15.494832 -21.404088   0.405456 -44.492414   0.080108   0.678986  -0.195210   1.055525  -4.895532  -7.040781  -6.348701  28.596060   0.010075  -0.024722 -13.567298  -2.215065   2.015062  -0.205104   0.000313  -0.000058   3.779941   2.541933  11.448420  23.748951  -0.035984   0.056843 -18.849127   3.347110  -0.380936   1.882420  -0.007510   0.008439
 -2.372041   0.892820   3.946769  -9.979215   6.102886   1.239675  12.016674  -1.896913  -0.020935   0.252877  -3.585136   0.185881   0.689514  -2.266695   0.531789  -4.471561   4.178273   2.272880 -18.928087   3.588392  13.171218  -0.013797  45.923595   0.242883   0.211235  -0.696922  -2.953659  -3.223463 -10.085211  -6.887693  -2.388985 -16.697319 -22.947121   0.407648 -48.323033   0.094238   0.705048  -0.688088   0.477700  -5.823281  -7.469607  -6.575931  30.440796   0.008819  -0.019615 -14.455923  -2.267839   1.934770  -0.198102   0.000260  -0.000047   3.637716   2.700246  12.493310  24.145822  -0.030387   0.049583 -18.626009   3.520539  -0.616287   2.008615  -0.006716   0.007958
 -2.370970   0.889131   3.944536 -10.029235   6.707730   1.163724  12.314887  -2.147129   0.129332   0.314328  -3.798292   0.299089   0.744013  -2.334376   0.534819  -4.656327   4.389881   2.308000 -19.934439   3.717615  13.875420  -0.026948  48.749645   0.233650   0.268424  -0.379501  -2.978061  -3.225128 -10.731938  -7.003938  -2.932194 -17.807648 -24.358283   0.404352 -52.159695   0.106674   0.728358  -1.173711  -0.033923  -6.701877  -7.892203  -6.748427  32.152838   0.007957  -0.015401 -15.282878  -2.329760   1.856620  -0.185032   0.000226  -0.000038   3.485516   2.845939  13.452173  24.467255  -0.025296   0.042741 -18.407111   3.682343  -0.837282   2.200605  -0.006222   0.008126
 -2.369831   0.885423   3.942505 -10.061350   7.293675   1.046026  12.592900  -2.369243   0.290741   0.365478  -3.987384   0.431573   0.799758  -2.396974   0.537058  -4.831489   4.581500   2.322485 -20.877281   3.825784  14.519780  -0.038709  51.388125   0.223604   0.325783  -0.065882  -3.037358  -3.239895 -11.323561  -7.059934  -3.470494 -18.824954 -25.654369   0.397878 -55.994198   0.117607   0.752469  -1.638436  -0.450255  -7.529171  -8.299985  -6.886425  33.757184   0.007396  -0.012007 -16.061318  -2.395669   1.784907  -0.167474   0.000205  -0.000030   3.338589   2.983502  14.307667  24.756015  -0.020857   0.036711 -18.203004   3.832706  -1.044530   2.377375  -0.005559   0.008032
 -2.368635   0.881720   3.940673 -10.081248   7.857746   0.892662  12.846744  -2.568351   0.461371   0.404703  -4.157355   0.576975   0.857133  -2.454885   0.537832  -4.996814   4.760372   2.324238 -21.759785   3.917891  15.113729  -0.048981  53.851124   0.213407   0.382606   0.233610  -3.120067  -3.269798 -11.873164  -7.075168  -4.006381 -19.771450 -26.855817   0.385336 -59.590738   0.125341   0.777105  -2.193140  -0.788865  -8.304059  -8.692264  -6.993807  35.263668   0.007026  -0.009299 -16.797030  -2.463958   1.719169  -0.146451   0.000192  -0.000025   3.204194   3.116307  15.062220  25.023826  -0.017032   0.031486 -18.012547   3.972245  -1.238963   2.538474  -0.004810   0.007738
